HIERARCHY
ROOT Hips
{
  OFFSET 263.056 91.6644 -274.608
  CHANNELS 6 Xposition Yposition Zposition Zrotation Xrotation Yrotation
  JOINT LeftUpLeg
  {
    OFFSET 8.64259 1.95398 -2.38835
    CHANNELS 3 Zrotation Xrotation Yrotation
    JOINT LeftLeg
    {
      OFFSET 43.7702 0 0
      CHANNELS 3 Zrotation Xrotation Yrotation
      JOINT LeftFoot
      {
        OFFSET 40.6238 0 0
        CHANNELS 3 Zrotation Xrotation Yrotation
        JOINT LeftToeBase
        {
          OFFSET 12.7242 0 0
          CHANNELS 3 Zrotation Xrotation Yrotation
          End Site
          {
            OFFSET 0 0 0
          }
        }
      }
    }
  }
  JOINT RightUpLeg
  {
    OFFSET -8.2249 1.95398 -2.59336
    CHANNELS 3 Zrotation Xrotation Yrotation
    JOINT RightLeg
    {
      OFFSET 43.5653 0 0
      CHANNELS 3 Zrotation Xrotation Yrotation
      JOINT RightFoot
      {
        OFFSET 40.6238 0 0
        CHANNELS 3 Zrotation Xrotation Yrotation
        JOINT RightToeBase
        {
          OFFSET 12.7242 0 0
          CHANNELS 3 Zrotation Xrotation Yrotation
          End Site
          {
            OFFSET 0 0 0
          }
        }
      }
    }
  }
  JOINT Spine
  {
    OFFSET 0.165834 0.87714 6.61349
    CHANNELS 3 Zrotation Xrotation Yrotation
    JOINT Spine1
    {
      OFFSET 7.38963 1.71661e-005 0
      CHANNELS 3 Zrotation Xrotation Yrotation
      JOINT Spine2
      {
        OFFSET 11.9445 1.14441e-005 0
        CHANNELS 3 Zrotation Xrotation Yrotation
        JOINT Spine3
        {
          OFFSET 14.7254 4.19617e-005 0
          CHANNELS 3 Zrotation Xrotation Yrotation
          JOINT Spine4
          {
            OFFSET 10.9679 0 0
            CHANNELS 3 Zrotation Xrotation Yrotation
            JOINT RightShoulder
            {
              OFFSET 2.46616 -1.6653 3.69651
              CHANNELS 3 Zrotation Xrotation Yrotation
              JOINT RightArm
              {
                OFFSET 13.0012 0 0
                CHANNELS 3 Zrotation Xrotation Yrotation
                JOINT RightForeArm
                {
                  OFFSET 28.7848 1.52588e-005 0
                  CHANNELS 3 Zrotation Xrotation Yrotation
                  JOINT RightHand
                  {
                    OFFSET 26.5688 1.52588e-005 0
                    CHANNELS 3 Zrotation Xrotation Yrotation
                    End Site
                    {
                      OFFSET 0 0 0
                    }
                  }
                }
              }
            }
            JOINT LeftShoulder
            {
              OFFSET 2.38034 -1.29275 -3.7523
              CHANNELS 3 Zrotation Xrotation Yrotation
              JOINT LeftArm
              {
                OFFSET 16.3182 6.10352e-005 0
                CHANNELS 3 Zrotation Xrotation Yrotation
                JOINT LeftForeArm
                {
                  OFFSET 27.0901 0 0
                  CHANNELS 3 Zrotation Xrotation Yrotation
                  JOINT LeftHand
                  {
                    OFFSET 24.5451 1.52588e-005 0
                    CHANNELS 3 Zrotation Xrotation Yrotation
                    End Site
                    {
                      OFFSET 0 0 0
                    }
                  }
                }
              }
            }
            JOINT Neck
            {
              OFFSET 5.0226 -0.0266342 0
              CHANNELS 3 Zrotation Xrotation Yrotation
              JOINT Head
              {
                OFFSET 6.69364 2.86102e-005 0
                CHANNELS 3 Zrotation Xrotation Yrotation
                End Site
                {
                  OFFSET 0 0 0
                }
              }
            }
          }
        }
      }
    }
  }
}
MOTION
Frames:	12
Frame Time:	0.0416667
-145.859 96.2779 -198.479 88.0542 -52.3707 88.9937 -174 5.21804 87.57 -14.6895 11.4467 0.0558773 66.4406 11.6393 11.3278 39.5618 11.204 -8.77617 -179.354 14.9285 93.3234 -20.9713 2.68748 -1.56999 65.0064 -1.96729 -1.07805 27.2491 -0.956737 11.223 -0.150088 7.43038 -89.9763 12.0132 -0.28724 0.0785029 0.342341 -0.283504 0.0910554 -22.1931 -0.297539 -0.0114519 -2.18043 -0.297541 -0.0114537 81.0038 -50.5551 -114.194 25.5892 -6.92263 5.64643 -6.4074 -12.0779 -42.0401 -3.7662 -0.420026 5.59657 -103.845 -42.5056 55.114 -28.5224 10.6116 1.88519 4.78819 9.21367 -35.893 10.4993 1.02006 5.45164 11.2518 -4.93223 3.30311 -9.22868 -5.51024 -1.81743 
-146.199 96.3543 -199.429 88.5228 -52.3525 89.5554 -174.205 5.55945 87.5328 -14.9468 13.8347 -0.0365232 65.8917 11.9602 13.0635 39.4124 11.2744 -6.21561 -179.141 16.3572 93.6864 -25.7961 1.3656 -1.95656 65.3717 -2.19416 -1.20227 36.8241 0.58573 8.90429 -0.221703 7.38583 -89.981 12.1024 -0.431701 0.0855736 0.431564 -0.427536 0.104482 -22.1042 -0.437465 -0.048138 -2.09152 -0.437468 -0.0481331 79.7456 -52.502 -115.283 23.6734 -7.53443 5.22541 -9.41581 -15.1446 -41.2579 -3.88486 -0.432788 4.31122 -104.343 -42.6898 54.4467 -27.6987 11.7672 1.64637 4.42056 11.7727 -32.971 8.87995 0.594961 2.60868 9.23018 -5.22977 4.23664 -7.69738 -5.92442 -3.30818 
-145.916 96.179 -199.514 89.3059 -51.6694 89.6725 -174.246 5.48734 86.885 -16.3693 13.6138 -0.113322 67.6569 13.4438 13.5003 37.1707 9.0946 -5.29072 -179.142 13.6719 93.0187 -25.1823 -1.98961 -2.61889 64.6755 -2.13819 -1.1894 40.1245 0.961741 8.33228 -0.272514 7.36614 -89.9399 12.1422 -0.513278 0.176454 0.471323 -0.505024 0.198867 -22.0647 -0.542578 0.0140282 -2.05201 -0.542584 0.0140234 79.4098 -52.9445 -115.595 23.6446 -8.63717 5.87126 -8.21375 -14.7519 -40.9141 -1.65484 -0.275374 4.39203 -103.769 -42.6491 55.2994 -28.1338 12.2084 2.34454 4.23182 12.0278 -32.8122 8.57375 0.630638 3.14924 8.92697 -4.95809 3.91582 -7.53636 -5.60466 -2.77515 
-145.285 96.1172 -198.811 88.2909 -50.8331 88.2011 -174.408 4.88095 86.1492 -15.4128 13.461 -0.220586 68.7604 15.1136 13.6475 36.3747 8.4205 -1.64458 -179.186 11.5916 92.465 -22.0031 -1.89382 -3.07206 68.1572 -3.22756 -1.73117 40.9498 1.09598 7.9893 -0.233792 7.20488 -89.8905 12.4646 -0.412424 0.266065 0.793687 -0.400305 0.283947 -21.7419 -0.473324 0.129815 -1.72928 -0.473339 0.129804 79.5037 -53.9255 -115.087 23.3116 -9.56579 6.36597 -8.99687 -17.2913 -39.5823 -3.14063 -0.385492 3.7533 -103.49 -43.0804 55.9297 -28.3767 11.9658 2.63965 3.49288 11.7675 -30.9812 9.71516 0.740914 3.46586 8.73664 -4.48533 3.20301 -7.70544 -5.01347 -1.86597 
-144.408 96.1208 -198.456 89.1596 -51.0404 89.0469 -174.618 3.65865 85.9355 -15.2547 13.3312 0.0237513 68.6467 15.6433 14.2119 36.1779 8.1955 -1.99029 -179.399 10.4285 92.3985 -22.0675 -1.86302 -3.10532 69.1494 -3.49167 -1.84567 39.4953 0.861264 6.4723 -0.136114 7.23912 -89.9669 12.3958 -0.254675 0.0952114 0.724838 -0.250247 0.106326 -21.8105 -0.271524 0.0142692 -1.79787 -0.27152 0.0142755 79.7933 -52.9154 -115.057 24.4552 -9.1361 6.92103 -8.75079 -16.4012 -39.0026 -2.56735 -0.355984 4.69377 -103.353 -43.3766 56.2762 -29.5161 11.0165 2.70299 3.88587 12.5544 -29.7271 9.83264 0.664583 2.68409 8.48057 -3.26992 3.03002 -7.89344 -3.82282 -0.721941 
-143.401 95.8809 -198.06 88.8623 -49.7385 89.1453 -174.857 3.72767 86.0019 -15.9584 13.9631 0.260673 68.938 15.7571 13.511 34.5798 6.48483 -2.2674 -179.448 10.7494 92.5406 -23.4729 1.60207 -3.06421 69.1513 -3.48034 -1.83151 40.4214 1.13359 10.9927 -0.230194 7.29219 -90.0254 12.2895 -0.469532 0.00224892 0.618661 -0.468973 0.0229074 -21.9171 -0.448489 -0.138969 -1.90449 -0.448486 -0.138979 80.034 -52.7813 -114.762 24.2263 -8.3324 7.63095 -8.06223 -14.4674 -41.094 -2.0429 -0.294965 4.23105 -103.992 -43.1775 55.2146 -29.5725 12.309 3.24209 3.21629 10.4599 -31.9455 9.57584 0.737628 3.52305 7.95455 -1.90706 1.98097 -6.08551 -2.27881 -0.154242 
-142.262 95.3868 -197.473 87.9581 -49.9015 88.3089 -174.95 4.10628 85.5773 -17.0293 13.6737 0.113435 69.2116 16.1841 13.7384 34.2124 6.12854 -9.43891 -179.221 14.6447 92.6149 -30.6336 2.5141 -3.36527 67.863 -3.26263 -1.75136 45.6065 1.54973 6.00756 -0.17809 7.3236 -89.9799 12.2272 -0.344447 0.0782383 0.556324 -0.340663 0.0933099 -21.9792 -0.352036 -0.0288988 -1.96658 -0.352034 -0.0289056 80.0037 -52.6522 -114.855 24.6662 -7.93716 8.70453 -11.1178 -16.0226 -43.2562 -4.18122 -0.431756 2.84385 -103.664 -42.7175 55.4925 -28.8383 13.1178 2.61817 5.18274 11.1139 -36.9627 7.39645 0.526519 2.84023 7.10075 -1.1569 1.03825 -5.20863 -1.35292 0.48503 
-140.74 95.1894 -196.413 85.3699 -50.4347 86.1538 -174.647 3.82549 85.414 -15.4016 12.9592 -0.415893 69.6644 16.3409 13.0331 33.3958 5.51016 -17.8254 -179.38 22.2256 92.4257 -39.1173 2.58393 -2.76117 66.4591 -3.01036 -1.66199 49.8073 1.44474 1.26787 -0.144238 7.27242 -89.9395 12.3288 -0.257858 0.150611 0.657853 -0.250972 0.161802 -21.8775 -0.29119 0.0661543 -1.86487 -0.291206 0.0661418 79.8958 -52.4825 -115.075 25.0406 -7.96257 9.58146 -9.42134 -13.3697 -43.3999 -4.07908 -0.435393 4.34408 -103.572 -42.563 55.5574 -27.1082 12.1255 1.82474 6.36955 8.06753 -43.2671 7.26616 0.59084 3.69443 6.85787 -0.406205 0.901656 -4.56506 -0.583687 0.568206 
-138.788 95.4659 -194.819 85.0503 -48.4897 86.8959 -174.638 0.876724 86.2524 -11.6692 16.1422 -0.170355 67.5266 15.6197 14.0299 38.0415 9.23392 -18.6309 -179.83 26.4506 92.9235 -35.6098 5.67358 -1.23731 67.774 -3.14183 -1.6926 47.8727 1.71047 5.08933 -0.418977 7.43372 -90.1134 12.0062 -0.886514 -0.129784 0.335573 -0.891369 -0.0906398 -22.2016 -0.806536 -0.390241 -2.18899 -0.806507 -0.390228 79.9727 -52.0906 -115.114 25.4565 -8.11392 10.588 -10.312 -14.9986 -42.7107 -4.21408 -0.442367 3.71532 -103.831 -41.8696 54.8268 -24.6604 11.0997 -1.24331 7.16447 6.74005 -46.5006 7.27306 0.55187 3.23285 7.58099 0.379853 1.15933 -3.72822 0.130776 1.13787 
-136.582 95.0214 -192.349 84.9718 -47.9756 87.0509 -174.282 -2.25459 86.7031 -9.47977 16.8742 -0.125748 67.5489 17.1071 14.9869 41.0173 12.1242 -13.1651 -179.437 30.0466 92.6144 -28.7174 5.21048 -0.419514 68.1948 -2.9247 -1.5646 45.9376 1.27425 2.4148 -0.527786 7.65728 -90.1603 11.5587 -1.12499 -0.203558 -0.111742 -1.13283 -0.153853 -22.6501 -1.01179 -0.532276 -2.63742 -1.01178 -0.532287 78.994 -53.2199 -116.082 24.1897 -7.9112 11.6447 -9.4283 -15.0782 -41.1742 -4.59754 -0.456623 3.42456 -103.917 -41.1692 54.3479 -21.1124 10.7286 -4.97676 6.09228 4.43291 -48.4881 6.52627 0.520855 3.47469 8.46583 0.714558 0.376673 -2.17048 0.637814 1.92753 
-133.487 93.8967 -188.76 84.8233 -46.9856 86.9679 -174.23 -4.49323 86.8024 -10.9799 18.3424 0.282792 67.3031 18.9514 18.0278 44.5847 14.9734 -14.9539 -178.537 32.8393 92.0036 -23.8507 7.97526 -0.508609 69.2195 -3.31101 -1.76365 47.7598 1.68898 5.0317 -0.674013 7.78889 -90.212 11.2948 -1.44002 -0.278874 -0.375375 -1.45091 -0.215224 -22.9157 -1.28963 -0.69884 -2.90304 -1.28963 -0.698834 79.0585 -53.7575 -115.782 23.8549 -7.40185 12.0365 -7.7706 -15.0227 -37.9928 -2.99589 -0.356666 3.88833 -104.391 -40.8653 53.4642 -18.8297 10.4554 -6.80643 5.67709 4.10671 -48.4334 8.01678 0.569765 2.89509 8.35097 0.851409 -0.0324588 -1.02851 0.890106 2.50011 
-129.37 92.6413 -183.594 85.4158 -45.6169 87.7228 -174.509 -6.30922 87.8447 -16.2231 23.5203 1.14072 63.308 16.4464 22.3161 54.7326 23.1605 -16.0166 -178.144 33.2754 92.0907 -24.898 6.86929 -0.990745 69.4839 -3.44319 -1.82441 48.7943 1.74606 4.55191 -0.8778 7.86391 -90.2945 11.1432 -1.88385 -0.402745 -0.526448 -1.89977 -0.319411 -23.0702 -1.67569 -0.950434 -3.05751 -1.67571 -0.950444 78.5353 -54.6178 -116.187 22.9628 -7.44685 12.365 -5.70624 -14.9889 -34.7522 -1.93281 -0.288092 3.96711 -104.971 -40.6858 52.4799 -18.8763 10.7064 -6.51626 4.95456 5.01073 -44.7015 9.25483 0.597159 2.40363 8.68135 0.994159 -0.473094 -0.82513 1.14264 3.15735 
